<svg width="68" height="70" viewBox="0 0 68 70" fill="none" xmlns="http://www.w3.org/2000/svg">
<g filter="url(#filter0_d_192_35)">
<rect x="33.8779" width="48" height="48" rx="10" transform="rotate(44.8933 33.8779 0)" fill="#023352"/>
<mask id="path-2-inside-1_192_35" fill="white">
<path d="M24.8672 35.7294L25.9565 25.9863L35.6954 24.8608C35.9252 24.8356 36.1581 24.765 36.3806 24.653C36.6031 24.541 36.8107 24.3899 36.9915 24.2085C37.1723 24.027 37.3226 23.8188 37.4337 23.5959C37.5449 23.373 37.6146 23.1399 37.639 22.91C37.6661 22.6798 37.6473 22.4569 37.5838 22.2542C37.5202 22.0515 37.4131 21.873 37.2687 21.7291C37.1243 21.5853 36.9454 21.4788 36.7425 21.416C36.5395 21.3532 36.3166 21.3353 36.0865 21.3633L24.6244 22.688C24.3932 22.7145 24.1591 22.7863 23.9355 22.8994C23.7119 23.0126 23.5032 23.1647 23.3214 23.3472C23.1396 23.5297 22.9882 23.739 22.8759 23.963C22.7636 24.187 22.6927 24.4213 22.667 24.6527L21.3711 36.1335C21.2622 37.1078 21.9498 37.7928 22.9237 37.6802C23.1534 37.655 23.3863 37.5844 23.6088 37.4724C23.8313 37.3605 24.0389 37.2094 24.2197 37.0279C24.4005 36.8465 24.5508 36.6383 24.662 36.4154C24.7731 36.1925 24.8429 35.9593 24.8672 35.7294ZM32.1862 43.0212L41.9251 41.8956L43.0144 32.1525C43.0387 31.9227 43.1085 31.6895 43.2196 31.4666C43.3308 31.2437 43.4811 31.0355 43.6619 30.8541C43.8427 30.6726 44.0503 30.5215 44.2728 30.4095C44.4953 30.2976 44.7282 30.2269 44.9579 30.2018C45.188 30.1738 45.411 30.1917 45.614 30.2545C45.8169 30.3173 45.9958 30.4238 46.1402 30.5676C46.2846 30.7115 46.3917 30.89 46.4552 31.0927C46.5188 31.2954 46.5376 31.5183 46.5105 31.7485L45.2285 43.2154C45.1195 44.1897 44.2449 45.0675 43.271 45.1801L31.7951 46.5187C31.565 46.5467 31.3421 46.5288 31.1391 46.4659C30.9362 46.4031 30.7573 46.2967 30.6129 46.1528C30.4685 46.009 30.3614 45.8305 30.2978 45.6278C30.2343 45.4251 30.2155 45.2022 30.2426 44.972C30.267 44.7421 30.3367 44.509 30.4479 44.2861C30.559 44.0632 30.7093 43.855 30.8901 43.6735C31.0709 43.492 31.2785 43.3409 31.501 43.229C31.7235 43.117 31.9564 43.0464 32.1862 43.0212Z"/>
</mask>
<path d="M24.8672 35.7294L25.9565 25.9863L35.6954 24.8608C35.9252 24.8356 36.1581 24.765 36.3806 24.653C36.6031 24.541 36.8107 24.3899 36.9915 24.2085C37.1723 24.027 37.3226 23.8188 37.4337 23.5959C37.5449 23.373 37.6146 23.1399 37.639 22.91C37.6661 22.6798 37.6473 22.4569 37.5838 22.2542C37.5202 22.0515 37.4131 21.873 37.2687 21.7291C37.1243 21.5853 36.9454 21.4788 36.7425 21.416C36.5395 21.3532 36.3166 21.3353 36.0865 21.3633L24.6244 22.688C24.3932 22.7145 24.1591 22.7863 23.9355 22.8994C23.7119 23.0126 23.5032 23.1647 23.3214 23.3472C23.1396 23.5297 22.9882 23.739 22.8759 23.963C22.7636 24.187 22.6927 24.4213 22.667 24.6527L21.3711 36.1335C21.2622 37.1078 21.9498 37.7928 22.9237 37.6802C23.1534 37.655 23.3863 37.5844 23.6088 37.4724C23.8313 37.3605 24.0389 37.2094 24.2197 37.0279C24.4005 36.8465 24.5508 36.6383 24.662 36.4154C24.7731 36.1925 24.8429 35.9593 24.8672 35.7294ZM32.1862 43.0212L41.9251 41.8956L43.0144 32.1525C43.0387 31.9227 43.1085 31.6895 43.2196 31.4666C43.3308 31.2437 43.4811 31.0355 43.6619 30.8541C43.8427 30.6726 44.0503 30.5215 44.2728 30.4095C44.4953 30.2976 44.7282 30.2269 44.9579 30.2018C45.188 30.1738 45.411 30.1917 45.614 30.2545C45.8169 30.3173 45.9958 30.4238 46.1402 30.5676C46.2846 30.7115 46.3917 30.89 46.4552 31.0927C46.5188 31.2954 46.5376 31.5183 46.5105 31.7485L45.2285 43.2154C45.1195 44.1897 44.2449 45.0675 43.271 45.1801L31.7951 46.5187C31.565 46.5467 31.3421 46.5288 31.1391 46.4659C30.9362 46.4031 30.7573 46.2967 30.6129 46.1528C30.4685 46.009 30.3614 45.8305 30.2978 45.6278C30.2343 45.4251 30.2155 45.2022 30.2426 44.972C30.267 44.7421 30.3367 44.509 30.4479 44.2861C30.559 44.0632 30.7093 43.855 30.8901 43.6735C31.0709 43.492 31.2785 43.3409 31.501 43.229C31.7235 43.117 31.9564 43.0464 32.1862 43.0212Z" fill="#010E13"/>
<path d="M24.8672 35.7294L20.892 35.285L20.8906 35.2968L20.8894 35.3085L24.8672 35.7294ZM25.9565 25.9863L25.4972 22.0128L22.3349 22.3783L21.9812 25.5419L25.9565 25.9863ZM35.6954 24.8608L35.2597 20.8846L35.248 20.8859L35.2362 20.8872L35.6954 24.8608ZM37.639 22.91L33.6664 22.4421L33.6637 22.4656L33.6612 22.4891L37.639 22.91ZM36.0865 21.3633L36.5457 25.3368L36.5574 25.3355L36.5691 25.334L36.0865 21.3633ZM24.6244 22.688L25.0797 26.662L25.0837 26.6615L24.6244 22.688ZM23.3214 23.3472L20.4877 20.5241L23.3214 23.3472ZM22.667 24.6527L26.6418 25.1013L26.6427 25.0931L22.667 24.6527ZM21.3711 36.1335L17.3964 35.6848L17.3959 35.6891L21.3711 36.1335ZM22.9237 37.6802L22.4879 33.704L22.4762 33.7053L22.4644 33.7067L22.9237 37.6802ZM32.1862 43.0212L32.6219 46.9974L32.6336 46.9961L32.6454 46.9947L32.1862 43.0212ZM41.9251 41.8956L42.3844 45.8692L45.5467 45.5037L45.9004 42.3401L41.9251 41.8956ZM43.0144 32.1525L46.9896 32.597L46.991 32.5852L46.9922 32.5734L43.0144 32.1525ZM44.9579 30.2018L45.3937 34.1779L45.4172 34.1754L45.4406 34.1725L44.9579 30.2018ZM46.1402 30.5676L48.9633 27.7339L46.1402 30.5676ZM46.5105 31.7485L42.5379 31.2806L42.5365 31.2923L42.5352 31.3041L46.5105 31.7485ZM45.2285 43.2154L41.2532 42.7709V42.7709L45.2285 43.2154ZM43.271 45.1801L42.8118 41.2065L42.8076 41.207L43.271 45.1801ZM31.7951 46.5187L31.3317 42.5457L31.3221 42.5468L31.3125 42.5479L31.7951 46.5187ZM30.2426 44.972L34.2152 45.4399L34.2179 45.4164L34.2204 45.3929L30.2426 44.972ZM24.8672 35.7294L28.8424 36.1739L29.9317 26.4308L25.9565 25.9863L21.9812 25.5419L20.892 35.285L24.8672 35.7294ZM25.9565 25.9863L26.4157 29.9599L36.1547 28.8343L35.6954 24.8608L35.2362 20.8872L25.4972 22.0128L25.9565 25.9863ZM35.6954 24.8608L36.1312 28.837C36.8711 28.7559 37.5631 28.5359 38.1789 28.226L36.3806 24.653L34.5823 21.08C34.7531 20.994 34.9793 20.9153 35.2597 20.8846L35.6954 24.8608ZM36.3806 24.653L38.1789 28.226C38.7953 27.9157 39.3504 27.5082 39.8252 27.0316L36.9915 24.2085L34.1578 21.3853C34.271 21.2717 34.4108 21.1663 34.5823 21.08L36.3806 24.653ZM36.9915 24.2085L39.8252 27.0316C40.3 26.5551 40.7055 25.9985 41.0134 25.3809L37.4337 23.5959L33.8541 21.811C33.9398 21.6392 34.0446 21.499 34.1578 21.3853L36.9915 24.2085ZM37.4337 23.5959L41.0134 25.3809C41.321 24.7639 41.5384 24.0712 41.6168 23.3309L37.639 22.91L33.6612 22.4891C33.6909 22.2086 33.7688 21.9821 33.8541 21.811L37.4337 23.5959ZM37.639 22.91L41.6115 23.3779C41.6985 22.6395 41.6476 21.8452 41.4005 21.0574L37.5838 22.2542L33.767 23.451C33.6471 23.0686 33.6337 22.7201 33.6664 22.4421L37.639 22.91ZM37.5838 22.2542L41.4005 21.0574C41.1516 20.2636 40.7147 19.516 40.0918 18.8954L37.2687 21.7291L34.4455 24.5628C34.1115 24.23 33.8888 23.8394 33.767 23.451L37.5838 22.2542ZM37.2687 21.7291L40.0918 18.8954C39.469 18.2749 38.7198 17.8408 37.9251 17.5948L36.7425 21.416L35.5599 25.2372C35.1711 25.1169 34.7796 24.8956 34.4455 24.5628L37.2687 21.7291ZM36.7425 21.416L37.9251 17.5948C37.1363 17.3507 36.3418 17.3028 35.6038 17.3925L36.0865 21.3633L36.5691 25.334C36.2913 25.3678 35.9428 25.3557 35.5599 25.2372L36.7425 21.416ZM36.0865 21.3633L35.6272 17.3897L24.1652 18.7144L24.6244 22.688L25.0837 26.6615L36.5457 25.3368L36.0865 21.3633ZM24.6244 22.688L24.1692 18.714C23.4324 18.7984 22.7434 19.0198 22.1297 19.3303L23.9355 22.8994L25.7413 26.4686C25.5748 26.5529 25.354 26.6305 25.0797 26.662L24.6244 22.688ZM23.9355 22.8994L22.1297 19.3303C21.5153 19.6411 20.9617 20.0483 20.4877 20.5241L23.3214 23.3472L26.1551 26.1704C26.0448 26.2811 25.9086 26.384 25.7413 26.4686L23.9355 22.8994ZM23.3214 23.3472L20.4877 20.5241C20.0138 20.9998 19.6086 21.5549 19.3001 22.1704L22.8759 23.963L26.4518 25.7555C26.3678 25.923 26.2655 26.0596 26.1551 26.1704L23.3214 23.3472ZM22.8759 23.963L19.3001 22.1704C18.9918 22.7853 18.773 23.4752 18.6914 24.2122L22.667 24.6527L26.6427 25.0931C26.6123 25.3675 26.5355 25.5886 26.4518 25.7555L22.8759 23.963ZM22.667 24.6527L18.6923 24.204L17.3964 35.6848L21.3711 36.1335L25.3459 36.5821L26.6418 25.1013L22.667 24.6527ZM21.3711 36.1335L17.3959 35.6891C17.2235 37.2311 17.6692 38.9038 18.9182 40.1481C20.1671 41.3924 21.8415 41.8319 23.3829 41.6538L22.9237 37.6802L22.4644 33.7067C23.0319 33.6411 23.8756 33.7944 24.5645 34.4807C25.2534 35.1671 25.4099 36.0102 25.3464 36.5779L21.3711 36.1335ZM22.9237 37.6802L23.3594 41.6564C24.0993 41.5753 24.7913 41.3554 25.4071 41.0454L23.6088 37.4724L21.8105 33.8995C21.9814 33.8135 22.2075 33.7348 22.4879 33.704L22.9237 37.6802ZM23.6088 37.4724L25.4071 41.0454C26.0235 40.7352 26.5786 40.3276 27.0534 39.8511L24.2197 37.0279L21.386 34.2048C21.4993 34.0911 21.6391 33.9858 21.8105 33.8995L23.6088 37.4724ZM24.2197 37.0279L27.0534 39.8511C27.5282 39.3745 27.9337 38.8179 28.2416 38.2003L24.662 36.4154L21.0823 34.6304C21.168 34.4586 21.2728 34.3184 21.386 34.2048L24.2197 37.0279ZM24.662 36.4154L28.2416 38.2003C28.5492 37.5834 28.7667 36.8906 28.845 36.1503L24.8672 35.7294L20.8894 35.3085C20.9191 35.028 20.997 34.8015 21.0823 34.6304L24.662 36.4154ZM32.1862 43.0212L32.6454 46.9947L42.3844 45.8692L41.9251 41.8956L41.4659 37.9221L31.7269 39.0476L32.1862 43.0212ZM41.9251 41.8956L45.9004 42.3401L46.9896 32.597L43.0144 32.1525L39.0392 31.7081L37.9499 41.4512L41.9251 41.8956ZM43.0144 32.1525L46.9922 32.5734C46.9625 32.854 46.8846 33.0804 46.7993 33.2516L43.2196 31.4666L39.64 29.6817C39.3324 30.2986 39.1149 30.9914 39.0366 31.7316L43.0144 32.1525ZM43.2196 31.4666L46.7993 33.2516C46.7136 33.4234 46.6088 33.5636 46.4956 33.6772L43.6619 30.8541L40.8282 28.0309C40.3534 28.5075 39.9479 29.0641 39.64 29.6817L43.2196 31.4666ZM43.6619 30.8541L46.4956 33.6772C46.3823 33.7909 46.2425 33.8962 46.0711 33.9825L44.2728 30.4095L42.4745 26.8365C41.8581 27.1468 41.303 27.5543 40.8282 28.0309L43.6619 30.8541ZM44.2728 30.4095L46.0711 33.9825C45.9003 34.0685 45.6741 34.1472 45.3937 34.1779L44.9579 30.2018L44.5222 26.2256C43.7822 26.3066 43.0903 26.5266 42.4745 26.8365L44.2728 30.4095ZM44.9579 30.2018L45.4406 34.1725C45.1628 34.2063 44.8142 34.1942 44.4314 34.0757L45.614 30.2545L46.7965 26.4333C46.0078 26.1892 45.2133 26.1413 44.4753 26.231L44.9579 30.2018ZM45.614 30.2545L44.4314 34.0757C44.0425 33.9554 43.651 33.7341 43.317 33.4013L46.1402 30.5676L48.9633 27.7339C48.3405 27.1134 47.5913 26.6793 46.7965 26.4333L45.614 30.2545ZM46.1402 30.5676L43.317 33.4013C42.983 33.0685 42.7603 32.6779 42.6385 32.2895L46.4552 31.0927L50.272 29.8959C50.0231 29.1021 49.5862 28.3545 48.9633 27.7339L46.1402 30.5676ZM46.4552 31.0927L42.6385 32.2895C42.5186 31.9071 42.5052 31.5585 42.5379 31.2806L46.5105 31.7485L50.483 32.2164C50.57 31.478 50.519 30.6837 50.272 29.8959L46.4552 31.0927ZM46.5105 31.7485L42.5352 31.3041L41.2532 42.7709L45.2285 43.2154L49.2037 43.6598L50.4857 32.1929L46.5105 31.7485ZM45.2285 43.2154L41.2532 42.7709C41.3135 42.2319 41.5522 41.8866 41.7404 41.6977C41.9286 41.5088 42.273 41.2688 42.8118 41.2065L43.271 45.1801L43.7303 49.1536C46.5551 48.8272 48.8877 46.4858 49.2037 43.6598L45.2285 43.2154ZM43.271 45.1801L42.8076 41.207L31.3317 42.5457L31.7951 46.5187L32.2586 50.4918L43.7345 49.1531L43.271 45.1801ZM31.7951 46.5187L31.3125 42.5479C31.5902 42.5142 31.9388 42.5263 32.3217 42.6448L31.1391 46.4659L29.9565 50.2871C30.7453 50.5313 31.5398 50.5792 32.2778 50.4895L31.7951 46.5187ZM31.1391 46.4659L32.3217 42.6448C32.7106 42.7651 33.1021 42.9864 33.4361 43.3192L30.6129 46.1528L27.7898 48.9865C28.4126 49.607 29.1618 50.0412 29.9565 50.2871L31.1391 46.4659ZM30.6129 46.1528L33.4361 43.3192C33.7701 43.6519 33.9928 44.0426 34.1146 44.431L30.2978 45.6278L26.4811 46.8246C26.73 47.6184 27.1669 48.366 27.7898 48.9865L30.6129 46.1528ZM30.2978 45.6278L34.1146 44.431C34.2345 44.8135 34.2479 45.162 34.2152 45.4399L30.2426 44.972L26.2701 44.5041C26.1831 45.2424 26.234 46.0367 26.4811 46.8246L30.2978 45.6278ZM30.2426 44.972L34.2204 45.3929C34.1907 45.6734 34.1128 45.8999 34.0275 46.071L30.4479 44.2861L26.8682 42.5011C26.5606 43.118 26.3432 43.8108 26.2648 44.5511L30.2426 44.972ZM30.4479 44.2861L34.0275 46.071C33.9418 46.2428 33.837 46.383 33.7238 46.4967L30.8901 43.6735L28.0564 40.8503C27.5816 41.3269 27.1761 41.8835 26.8682 42.5011L30.4479 44.2861ZM30.8901 43.6735L33.7238 46.4967C33.6106 46.6103 33.4708 46.7157 33.2993 46.802L31.501 43.229L29.7027 39.656C29.0863 39.9662 28.5312 40.3738 28.0564 40.8503L30.8901 43.6735ZM31.501 43.229L33.2993 46.802C33.1285 46.8879 32.9023 46.9667 32.6219 46.9974L32.1862 43.0212L31.7504 39.045C31.0105 39.1261 30.3185 39.3461 29.7027 39.656L31.501 43.229Z" fill="#EA9F1E" mask="url(#path-2-inside-1_192_35)"/>
</g>
<defs>
<filter id="filter0_d_192_35" x="-2" y="0" width="71.8818" height="73.8821" filterUnits="userSpaceOnUse" color-interpolation-filters="sRGB">
<feFlood flood-opacity="0" result="BackgroundImageFix"/>
<feColorMatrix in="SourceAlpha" type="matrix" values="0 0 0 0 0 0 0 0 0 0 0 0 0 0 0 0 0 0 127 0" result="hardAlpha"/>
<feOffset dy="4"/>
<feGaussianBlur stdDeviation="1"/>
<feComposite in2="hardAlpha" operator="out"/>
<feColorMatrix type="matrix" values="0 0 0 0 0.998798 0 0 0 0 0.980544 0 0 0 0 0.945977 0 0 0 1 0"/>
<feBlend mode="normal" in2="BackgroundImageFix" result="effect1_dropShadow_192_35"/>
<feBlend mode="normal" in="SourceGraphic" in2="effect1_dropShadow_192_35" result="shape"/>
</filter>
</defs>
</svg>
